<mxfile host="Electron" modified="2024-03-12T15:31:19.483Z" agent="Mozilla/5.0 (Macintosh; Intel Mac OS X 10_15_7) AppleWebKit/537.36 (KHTML, like Gecko) draw.io/21.5.1 Chrome/112.0.5615.204 Electron/24.6.0 Safari/537.36" etag="DSKWGa8ghlal5CSedVIK" version="21.5.1" type="device">
  <diagram name="Page-1" id="yanQ3WUoxzE5hnDCjzH7">
    <mxGraphModel dx="7436" dy="3000" grid="1" gridSize="10" guides="1" tooltips="1" connect="1" arrows="1" fold="1" page="1" pageScale="1" pageWidth="850" pageHeight="1100" math="0" shadow="0">
      <root>
        <mxCell id="0" />
        <mxCell id="1" parent="0" />
        <mxCell id="P2ACuwvenuWP9-W9ECjz-71" value="" style="rounded=0;whiteSpace=wrap;html=1;" parent="1" vertex="1">
          <mxGeometry x="-1490" y="160" width="4880" height="2700" as="geometry" />
        </mxCell>
        <mxCell id="P2ACuwvenuWP9-W9ECjz-54" value="" style="shape=ext;double=1;rounded=1;whiteSpace=wrap;html=1;fillOpacity=0;strokeWidth=5;fillColor=#eeeeee;strokeColor=#36393d;" parent="1" vertex="1">
          <mxGeometry x="-1200" y="760" width="640" height="1300" as="geometry" />
        </mxCell>
        <mxCell id="P2ACuwvenuWP9-W9ECjz-55" value="" style="shape=ext;double=1;rounded=1;whiteSpace=wrap;html=1;fillOpacity=0;strokeWidth=5;fillColor=#eeeeee;strokeColor=#36393d;" parent="1" vertex="1">
          <mxGeometry x="-500" y="770" width="640" height="1300" as="geometry" />
        </mxCell>
        <mxCell id="P2ACuwvenuWP9-W9ECjz-47" value="" style="shape=ext;double=1;rounded=1;whiteSpace=wrap;html=1;fillOpacity=0;strokeWidth=5;fillColor=#eeeeee;strokeColor=#36393d;" parent="1" vertex="1">
          <mxGeometry x="350" y="770" width="640" height="1520" as="geometry" />
        </mxCell>
        <mxCell id="P2ACuwvenuWP9-W9ECjz-48" value="" style="shape=ext;double=1;rounded=1;whiteSpace=wrap;html=1;fillOpacity=0;strokeWidth=5;fillColor=#eeeeee;strokeColor=#36393d;" parent="1" vertex="1">
          <mxGeometry x="1030" y="760" width="640" height="1520" as="geometry" />
        </mxCell>
        <mxCell id="P2ACuwvenuWP9-W9ECjz-39" value="" style="verticalLabelPosition=bottom;verticalAlign=top;html=1;shape=mxgraph.basic.rect;fillColor2=none;strokeWidth=1;size=20;indent=5;" parent="1" vertex="1">
          <mxGeometry x="400" y="1050" width="1180" height="740" as="geometry" />
        </mxCell>
        <mxCell id="Wixsv4hnN91RMwfABxU9-15" style="edgeStyle=orthogonalEdgeStyle;rounded=0;orthogonalLoop=1;jettySize=auto;html=1;entryX=0.5;entryY=1;entryDx=0;entryDy=0;" parent="1" source="Wixsv4hnN91RMwfABxU9-34" target="Wixsv4hnN91RMwfABxU9-6" edge="1">
          <mxGeometry relative="1" as="geometry" />
        </mxCell>
        <mxCell id="P2ACuwvenuWP9-W9ECjz-37" value="" style="verticalLabelPosition=bottom;verticalAlign=top;html=1;shape=mxgraph.basic.rect;fillColor2=none;strokeWidth=1;size=20;indent=5;movable=0;resizable=0;rotatable=0;deletable=0;editable=0;locked=1;connectable=0;" parent="1" vertex="1">
          <mxGeometry x="450" y="1110" width="1180" height="740" as="geometry" />
        </mxCell>
        <mxCell id="Wixsv4hnN91RMwfABxU9-40" style="edgeStyle=orthogonalEdgeStyle;rounded=0;orthogonalLoop=1;jettySize=auto;html=1;entryX=1.016;entryY=0.498;entryDx=0;entryDy=0;entryPerimeter=0;" parent="1" source="Wixsv4hnN91RMwfABxU9-2" target="Wixsv4hnN91RMwfABxU9-34" edge="1">
          <mxGeometry relative="1" as="geometry">
            <Array as="points">
              <mxPoint x="690" y="1645" />
              <mxPoint x="690" y="1450" />
            </Array>
          </mxGeometry>
        </mxCell>
        <mxCell id="Wixsv4hnN91RMwfABxU9-46" style="edgeStyle=orthogonalEdgeStyle;rounded=0;orthogonalLoop=1;jettySize=auto;html=1;entryX=0.445;entryY=0.995;entryDx=0;entryDy=0;entryPerimeter=0;" parent="1" source="Wixsv4hnN91RMwfABxU9-2" target="Wixsv4hnN91RMwfABxU9-42" edge="1">
          <mxGeometry relative="1" as="geometry" />
        </mxCell>
        <mxCell id="Wixsv4hnN91RMwfABxU9-2" value="&lt;font style=&quot;font-size: 18px;&quot;&gt;nginx Ingress Controller&lt;/font&gt;" style="rounded=1;whiteSpace=wrap;html=1;" parent="1" vertex="1">
          <mxGeometry x="810" y="1590" width="210" height="110" as="geometry" />
        </mxCell>
        <mxCell id="P2ACuwvenuWP9-W9ECjz-36" style="edgeStyle=orthogonalEdgeStyle;rounded=0;orthogonalLoop=1;jettySize=auto;html=1;" parent="1" source="Wixsv4hnN91RMwfABxU9-3" target="Wixsv4hnN91RMwfABxU9-27" edge="1">
          <mxGeometry relative="1" as="geometry" />
        </mxCell>
        <mxCell id="Wixsv4hnN91RMwfABxU9-3" value="&lt;font style=&quot;font-size: 18px;&quot;&gt;gateway&lt;/font&gt;" style="rounded=1;whiteSpace=wrap;html=1;" parent="1" vertex="1">
          <mxGeometry x="815" y="1235" width="210" height="115" as="geometry" />
        </mxCell>
        <mxCell id="Wixsv4hnN91RMwfABxU9-4" value="&lt;font style=&quot;font-size: 18px;&quot;&gt;user&lt;/font&gt;" style="rounded=1;whiteSpace=wrap;html=1;" parent="1" vertex="1">
          <mxGeometry x="1400" y="1190" width="120" height="60" as="geometry" />
        </mxCell>
        <mxCell id="Wixsv4hnN91RMwfABxU9-5" value="&lt;font style=&quot;font-size: 18px;&quot;&gt;underwriter&lt;/font&gt;" style="rounded=1;whiteSpace=wrap;html=1;" parent="1" vertex="1">
          <mxGeometry x="1400" y="1310" width="120" height="60" as="geometry" />
        </mxCell>
        <mxCell id="Wixsv4hnN91RMwfABxU9-6" value="&lt;font style=&quot;font-size: 18px;&quot;&gt;nginx frontends&lt;/font&gt;" style="rounded=1;whiteSpace=wrap;html=1;" parent="1" vertex="1">
          <mxGeometry x="510" y="1302.5" width="195" height="110" as="geometry" />
        </mxCell>
        <mxCell id="Wixsv4hnN91RMwfABxU9-9" value="&lt;font style=&quot;font-size: 18px;&quot;&gt;bank&lt;/font&gt;" style="rounded=1;whiteSpace=wrap;html=1;" parent="1" vertex="1">
          <mxGeometry x="1400" y="1430" width="120" height="60" as="geometry" />
        </mxCell>
        <mxCell id="Wixsv4hnN91RMwfABxU9-10" value="&lt;font style=&quot;font-size: 18px;&quot;&gt;account&lt;/font&gt;" style="rounded=1;whiteSpace=wrap;html=1;" parent="1" vertex="1">
          <mxGeometry x="1400" y="1540" width="120" height="60" as="geometry" />
        </mxCell>
        <mxCell id="Wixsv4hnN91RMwfABxU9-11" value="&lt;font style=&quot;font-size: 18px;&quot;&gt;transaction&lt;/font&gt;" style="rounded=1;whiteSpace=wrap;html=1;" parent="1" vertex="1">
          <mxGeometry x="1400" y="1650" width="120" height="60" as="geometry" />
        </mxCell>
        <mxCell id="Wixsv4hnN91RMwfABxU9-27" value="" style="verticalLabelPosition=bottom;verticalAlign=top;html=1;shape=mxgraph.basic.polygon;polyCoords=[[0.25,0],[0.75,0],[1,0.25],[1,0.75],[0.75,1],[0.25,1],[0,0.75],[0,0.25]];polyline=0;" parent="1" vertex="1">
          <mxGeometry x="1130" y="1412.5" width="100" height="100" as="geometry" />
        </mxCell>
        <mxCell id="P2ACuwvenuWP9-W9ECjz-31" style="edgeStyle=orthogonalEdgeStyle;rounded=0;orthogonalLoop=1;jettySize=auto;html=1;entryX=0;entryY=0.5;entryDx=0;entryDy=0;" parent="1" source="Wixsv4hnN91RMwfABxU9-32" target="Wixsv4hnN91RMwfABxU9-4" edge="1">
          <mxGeometry relative="1" as="geometry" />
        </mxCell>
        <mxCell id="P2ACuwvenuWP9-W9ECjz-32" style="edgeStyle=orthogonalEdgeStyle;rounded=0;orthogonalLoop=1;jettySize=auto;html=1;entryX=0;entryY=0.5;entryDx=0;entryDy=0;" parent="1" source="Wixsv4hnN91RMwfABxU9-32" target="Wixsv4hnN91RMwfABxU9-5" edge="1">
          <mxGeometry relative="1" as="geometry" />
        </mxCell>
        <mxCell id="P2ACuwvenuWP9-W9ECjz-33" style="edgeStyle=orthogonalEdgeStyle;rounded=0;orthogonalLoop=1;jettySize=auto;html=1;entryX=0;entryY=0.5;entryDx=0;entryDy=0;" parent="1" source="Wixsv4hnN91RMwfABxU9-32" target="Wixsv4hnN91RMwfABxU9-9" edge="1">
          <mxGeometry relative="1" as="geometry" />
        </mxCell>
        <mxCell id="P2ACuwvenuWP9-W9ECjz-34" style="edgeStyle=orthogonalEdgeStyle;rounded=0;orthogonalLoop=1;jettySize=auto;html=1;entryX=0;entryY=0.5;entryDx=0;entryDy=0;" parent="1" source="Wixsv4hnN91RMwfABxU9-32" target="Wixsv4hnN91RMwfABxU9-10" edge="1">
          <mxGeometry relative="1" as="geometry" />
        </mxCell>
        <mxCell id="P2ACuwvenuWP9-W9ECjz-35" style="edgeStyle=orthogonalEdgeStyle;rounded=0;orthogonalLoop=1;jettySize=auto;html=1;entryX=0;entryY=0.5;entryDx=0;entryDy=0;" parent="1" source="Wixsv4hnN91RMwfABxU9-32" target="Wixsv4hnN91RMwfABxU9-11" edge="1">
          <mxGeometry relative="1" as="geometry" />
        </mxCell>
        <mxCell id="Wixsv4hnN91RMwfABxU9-32" value="&lt;font style=&quot;font-size: 18px;&quot;&gt;ClusterIP&lt;/font&gt;" style="text;html=1;align=center;verticalAlign=middle;resizable=0;points=[];autosize=1;strokeColor=none;fillColor=none;" parent="1" vertex="1">
          <mxGeometry x="1130" y="1442.5" width="100" height="40" as="geometry" />
        </mxCell>
        <mxCell id="Wixsv4hnN91RMwfABxU9-34" value="" style="verticalLabelPosition=bottom;verticalAlign=top;html=1;shape=mxgraph.basic.polygon;polyCoords=[[0.25,0],[0.75,0],[1,0.25],[1,0.75],[0.75,1],[0.25,1],[0,0.75],[0,0.25]];polyline=0;" parent="1" vertex="1">
          <mxGeometry x="557.5" y="1400" width="100" height="100" as="geometry" />
        </mxCell>
        <mxCell id="Wixsv4hnN91RMwfABxU9-36" value="&lt;font style=&quot;font-size: 17px;&quot;&gt;ClusterIP&lt;/font&gt;" style="text;html=1;align=center;verticalAlign=middle;resizable=0;points=[];autosize=1;strokeColor=none;fillColor=none;" parent="1" vertex="1">
          <mxGeometry x="565" y="1435" width="90" height="30" as="geometry" />
        </mxCell>
        <mxCell id="Wixsv4hnN91RMwfABxU9-37" value="" style="verticalLabelPosition=bottom;verticalAlign=top;html=1;shape=mxgraph.basic.polygon;polyCoords=[[0.25,0],[0.75,0],[1,0.25],[1,0.75],[0.75,1],[0.25,1],[0,0.75],[0,0.25]];polyline=0;" parent="1" vertex="1">
          <mxGeometry x="847.5" y="1680" width="135" height="120" as="geometry" />
        </mxCell>
        <mxCell id="Wixsv4hnN91RMwfABxU9-38" value="&lt;font style=&quot;font-size: 18px;&quot;&gt;LoadBalancer&lt;/font&gt;" style="text;html=1;align=center;verticalAlign=middle;resizable=0;points=[];autosize=1;strokeColor=none;fillColor=none;" parent="1" vertex="1">
          <mxGeometry x="847.5" y="1720" width="130" height="40" as="geometry" />
        </mxCell>
        <mxCell id="Wixsv4hnN91RMwfABxU9-42" value="" style="verticalLabelPosition=bottom;verticalAlign=top;html=1;shape=mxgraph.basic.polygon;polyCoords=[[0.25,0],[0.75,0],[1,0.25],[1,0.75],[0.75,1],[0.25,1],[0,0.75],[0,0.25]];polyline=0;" parent="1" vertex="1">
          <mxGeometry x="870" y="1335" width="100" height="100" as="geometry" />
        </mxCell>
        <mxCell id="Wixsv4hnN91RMwfABxU9-45" value="&lt;font style=&quot;font-size: 18px;&quot;&gt;ClusterIP&lt;/font&gt;" style="text;html=1;align=center;verticalAlign=middle;resizable=0;points=[];autosize=1;strokeColor=none;fillColor=none;" parent="1" vertex="1">
          <mxGeometry x="870" y="1365" width="100" height="40" as="geometry" />
        </mxCell>
        <mxCell id="P2ACuwvenuWP9-W9ECjz-38" value="&lt;font style=&quot;font-size: 45px;&quot;&gt;EC2 Node&lt;/font&gt;" style="text;html=1;align=center;verticalAlign=middle;resizable=0;points=[];autosize=1;strokeColor=none;fillColor=none;" parent="1" vertex="1">
          <mxGeometry x="460" y="1100" width="230" height="70" as="geometry" />
        </mxCell>
        <mxCell id="P2ACuwvenuWP9-W9ECjz-40" value="&lt;font style=&quot;font-size: 45px;&quot;&gt;EC2 Node&lt;/font&gt;" style="text;html=1;align=center;verticalAlign=middle;resizable=0;points=[];autosize=1;strokeColor=none;fillColor=none;" parent="1" vertex="1">
          <mxGeometry x="400" y="1045" width="230" height="70" as="geometry" />
        </mxCell>
        <mxCell id="P2ACuwvenuWP9-W9ECjz-52" value="" style="html=1;whiteSpace=wrap;shape=isoCube2;backgroundOutline=1;isoAngle=15;" parent="1" vertex="1">
          <mxGeometry x="-900" y="930" width="730" height="870" as="geometry" />
        </mxCell>
        <mxCell id="P2ACuwvenuWP9-W9ECjz-53" value="EKS Cluster&lt;br style=&quot;font-size: 45px;&quot;&gt;&amp;nbsp;(Control Plane)" style="text;html=1;align=center;verticalAlign=middle;resizable=0;points=[];autosize=1;strokeColor=none;fillColor=none;fontSize=45;rotation=-28;" parent="1" vertex="1">
          <mxGeometry x="-520" y="1350" width="340" height="120" as="geometry" />
        </mxCell>
        <mxCell id="P2ACuwvenuWP9-W9ECjz-57" value="10.0.0.0/19&lt;br&gt;us-east-1a" style="text;html=1;align=center;verticalAlign=middle;resizable=0;points=[];autosize=1;strokeColor=none;fillColor=none;fontSize=45;horizontal=1;" parent="1" vertex="1">
          <mxGeometry x="-1130" y="780" width="250" height="120" as="geometry" />
        </mxCell>
        <mxCell id="P2ACuwvenuWP9-W9ECjz-58" value="" style="outlineConnect=0;dashed=0;verticalLabelPosition=bottom;verticalAlign=top;align=center;html=1;shape=mxgraph.aws3.application_load_balancer;fillColor=#F58534;gradientColor=none;" parent="1" vertex="1">
          <mxGeometry x="851.25" y="1910" width="297.5" height="300" as="geometry" />
        </mxCell>
        <mxCell id="P2ACuwvenuWP9-W9ECjz-65" value="" style="shape=ext;double=1;rounded=1;whiteSpace=wrap;html=1;fillOpacity=0;strokeWidth=5;fillColor=#eeeeee;strokeColor=#36393d;" parent="1" vertex="1">
          <mxGeometry x="1860" y="760" width="640" height="1300" as="geometry" />
        </mxCell>
        <mxCell id="P2ACuwvenuWP9-W9ECjz-66" value="" style="shape=ext;double=1;rounded=1;whiteSpace=wrap;html=1;fillOpacity=0;strokeWidth=5;fillColor=#eeeeee;strokeColor=#36393d;" parent="1" vertex="1">
          <mxGeometry x="2540" y="750" width="640" height="1300" as="geometry" />
        </mxCell>
        <mxCell id="P2ACuwvenuWP9-W9ECjz-67" value="" style="strokeWidth=2;html=1;shape=mxgraph.flowchart.database;whiteSpace=wrap;" parent="1" vertex="1">
          <mxGeometry x="2220" y="950" width="600" height="790" as="geometry" />
        </mxCell>
        <mxCell id="P2ACuwvenuWP9-W9ECjz-68" value="RDS" style="text;html=1;align=center;verticalAlign=middle;resizable=0;points=[];autosize=1;strokeColor=none;fillColor=none;fontSize=52;" parent="1" vertex="1">
          <mxGeometry x="2450" y="1332.5" width="130" height="80" as="geometry" />
        </mxCell>
        <mxCell id="P2ACuwvenuWP9-W9ECjz-73" value="&lt;font style=&quot;font-size: 55px;&quot;&gt;VPC 10.0.0.0/16&lt;/font&gt;" style="text;html=1;strokeColor=none;fillColor=none;align=center;verticalAlign=middle;whiteSpace=wrap;rounded=0;fontSize=13;" parent="1" vertex="1">
          <mxGeometry x="930" y="280" width="60" height="30" as="geometry" />
        </mxCell>
        <mxCell id="P2ACuwvenuWP9-W9ECjz-76" value="10.0.32.0/19&lt;br&gt;us-east-1b" style="text;html=1;align=center;verticalAlign=middle;resizable=0;points=[];autosize=1;strokeColor=none;fillColor=none;fontSize=45;horizontal=1;" parent="1" vertex="1">
          <mxGeometry x="-430" y="775" width="270" height="120" as="geometry" />
        </mxCell>
        <mxCell id="P2ACuwvenuWP9-W9ECjz-77" value="10.0.64.0/19&lt;br&gt;us-east-1a" style="text;html=1;align=center;verticalAlign=middle;resizable=0;points=[];autosize=1;strokeColor=none;fillColor=none;fontSize=45;horizontal=1;" parent="1" vertex="1">
          <mxGeometry x="410" y="780" width="270" height="120" as="geometry" />
        </mxCell>
        <mxCell id="P2ACuwvenuWP9-W9ECjz-78" value="10.0.96.0/19&lt;br&gt;us-east-1b" style="text;html=1;align=center;verticalAlign=middle;resizable=0;points=[];autosize=1;strokeColor=none;fillColor=none;fontSize=45;horizontal=1;" parent="1" vertex="1">
          <mxGeometry x="1090" y="780" width="270" height="120" as="geometry" />
        </mxCell>
        <mxCell id="P2ACuwvenuWP9-W9ECjz-79" value="10.0.128.0/19&lt;br&gt;us-east-1a" style="text;html=1;align=center;verticalAlign=middle;resizable=0;points=[];autosize=1;strokeColor=none;fillColor=none;fontSize=45;horizontal=1;" parent="1" vertex="1">
          <mxGeometry x="1920" y="780" width="300" height="120" as="geometry" />
        </mxCell>
        <mxCell id="P2ACuwvenuWP9-W9ECjz-80" value="10.0.160.0/19&lt;br&gt;us-east-1b" style="text;html=1;align=center;verticalAlign=middle;resizable=0;points=[];autosize=1;strokeColor=none;fillColor=none;fontSize=45;horizontal=1;" parent="1" vertex="1">
          <mxGeometry x="2590" y="780" width="300" height="120" as="geometry" />
        </mxCell>
        <mxCell id="P2ACuwvenuWP9-W9ECjz-83" style="edgeStyle=orthogonalEdgeStyle;rounded=0;orthogonalLoop=1;jettySize=auto;html=1;exitX=1;exitY=0.5;exitDx=0;exitDy=0;exitPerimeter=0;" parent="1" source="P2ACuwvenuWP9-W9ECjz-81" target="P2ACuwvenuWP9-W9ECjz-47" edge="1">
          <mxGeometry relative="1" as="geometry" />
        </mxCell>
        <mxCell id="P2ACuwvenuWP9-W9ECjz-84" style="edgeStyle=orthogonalEdgeStyle;rounded=0;orthogonalLoop=1;jettySize=auto;html=1;" parent="1" source="P2ACuwvenuWP9-W9ECjz-81" target="P2ACuwvenuWP9-W9ECjz-48" edge="1">
          <mxGeometry relative="1" as="geometry" />
        </mxCell>
        <mxCell id="P2ACuwvenuWP9-W9ECjz-85" style="edgeStyle=orthogonalEdgeStyle;rounded=0;orthogonalLoop=1;jettySize=auto;html=1;exitX=1;exitY=0.5;exitDx=0;exitDy=0;exitPerimeter=0;entryX=0.5;entryY=1;entryDx=0;entryDy=0;" parent="1" source="P2ACuwvenuWP9-W9ECjz-81" target="P2ACuwvenuWP9-W9ECjz-55" edge="1">
          <mxGeometry relative="1" as="geometry" />
        </mxCell>
        <mxCell id="P2ACuwvenuWP9-W9ECjz-86" style="edgeStyle=orthogonalEdgeStyle;rounded=0;orthogonalLoop=1;jettySize=auto;html=1;entryX=0.75;entryY=1;entryDx=0;entryDy=0;exitX=1;exitY=0.5;exitDx=0;exitDy=0;exitPerimeter=0;" parent="1" source="P2ACuwvenuWP9-W9ECjz-81" target="P2ACuwvenuWP9-W9ECjz-54" edge="1">
          <mxGeometry relative="1" as="geometry" />
        </mxCell>
        <mxCell id="P2ACuwvenuWP9-W9ECjz-87" style="edgeStyle=orthogonalEdgeStyle;rounded=0;orthogonalLoop=1;jettySize=auto;html=1;entryX=0.5;entryY=1;entryDx=0;entryDy=0;" parent="1" source="P2ACuwvenuWP9-W9ECjz-89" target="P2ACuwvenuWP9-W9ECjz-65" edge="1">
          <mxGeometry relative="1" as="geometry" />
        </mxCell>
        <mxCell id="P2ACuwvenuWP9-W9ECjz-88" style="edgeStyle=orthogonalEdgeStyle;rounded=0;orthogonalLoop=1;jettySize=auto;html=1;entryX=0.5;entryY=1;entryDx=0;entryDy=0;" parent="1" source="P2ACuwvenuWP9-W9ECjz-90" target="P2ACuwvenuWP9-W9ECjz-66" edge="1">
          <mxGeometry relative="1" as="geometry" />
        </mxCell>
        <mxCell id="P2ACuwvenuWP9-W9ECjz-81" value="" style="outlineConnect=0;dashed=0;verticalLabelPosition=bottom;verticalAlign=top;align=center;html=1;shape=mxgraph.aws3.internet_gateway;fillColor=#F58534;gradientColor=none;" parent="1" vertex="1">
          <mxGeometry x="-1240" y="2390" width="350" height="340" as="geometry" />
        </mxCell>
        <mxCell id="P2ACuwvenuWP9-W9ECjz-91" value="" style="edgeStyle=orthogonalEdgeStyle;rounded=0;orthogonalLoop=1;jettySize=auto;html=1;entryX=0.5;entryY=1;entryDx=0;entryDy=0;" parent="1" source="P2ACuwvenuWP9-W9ECjz-81" target="P2ACuwvenuWP9-W9ECjz-90" edge="1">
          <mxGeometry relative="1" as="geometry">
            <mxPoint x="-890" y="2560" as="sourcePoint" />
            <mxPoint x="2860" y="2050" as="targetPoint" />
          </mxGeometry>
        </mxCell>
        <mxCell id="P2ACuwvenuWP9-W9ECjz-90" value="" style="points=[[0.145,0.145,0],[0.5,0,0],[0.855,0.145,0],[1,0.5,0],[0.855,0.855,0],[0.5,1,0],[0.145,0.855,0],[0,0.5,0]];shape=mxgraph.bpmn.event;html=1;verticalLabelPosition=bottom;labelBackgroundColor=#ffffff;verticalAlign=top;align=center;perimeter=ellipsePerimeter;outlineConnect=0;aspect=fixed;outline=boundInt;symbol=cancel;" parent="1" vertex="1">
          <mxGeometry x="2745" y="2150" width="230" height="230" as="geometry" />
        </mxCell>
        <mxCell id="P2ACuwvenuWP9-W9ECjz-92" value="" style="edgeStyle=orthogonalEdgeStyle;rounded=0;orthogonalLoop=1;jettySize=auto;html=1;entryX=0.5;entryY=1;entryDx=0;entryDy=0;" parent="1" source="P2ACuwvenuWP9-W9ECjz-81" target="P2ACuwvenuWP9-W9ECjz-89" edge="1">
          <mxGeometry relative="1" as="geometry">
            <mxPoint x="-890" y="2560" as="sourcePoint" />
            <mxPoint x="2180" y="2060" as="targetPoint" />
          </mxGeometry>
        </mxCell>
        <mxCell id="P2ACuwvenuWP9-W9ECjz-89" value="" style="points=[[0.145,0.145,0],[0.5,0,0],[0.855,0.145,0],[1,0.5,0],[0.855,0.855,0],[0.5,1,0],[0.145,0.855,0],[0,0.5,0]];shape=mxgraph.bpmn.event;html=1;verticalLabelPosition=bottom;labelBackgroundColor=#ffffff;verticalAlign=top;align=center;perimeter=ellipsePerimeter;outlineConnect=0;aspect=fixed;outline=boundInt;symbol=cancel;" parent="1" vertex="1">
          <mxGeometry x="2070" y="2140" width="220" height="220" as="geometry" />
        </mxCell>
        <mxCell id="P2ACuwvenuWP9-W9ECjz-93" value="&lt;span style=&quot;font-size: 45px;&quot;&gt;Route to Internet Gateway&lt;/span&gt;" style="text;html=1;align=center;verticalAlign=middle;resizable=0;points=[];autosize=1;strokeColor=none;fillColor=none;" parent="1" vertex="1">
          <mxGeometry x="-90" y="2580" width="550" height="70" as="geometry" />
        </mxCell>
        <mxCell id="P2ACuwvenuWP9-W9ECjz-94" value="&lt;font style=&quot;font-size: 45px;&quot;&gt;ACL&lt;br&gt;Restricts external&lt;br&gt;SSH traffic&lt;br&gt;&lt;br&gt;&lt;/font&gt;" style="sketch=0;outlineConnect=0;fontColor=#232F3E;gradientColor=none;strokeColor=#232F3E;fillColor=#ffffff;dashed=0;verticalLabelPosition=bottom;verticalAlign=top;align=center;html=1;fontSize=12;fontStyle=0;aspect=fixed;shape=mxgraph.aws4.resourceIcon;resIcon=mxgraph.aws4.network_access_control_list;" parent="1" vertex="1">
          <mxGeometry x="465" y="1910" width="190" height="190" as="geometry" />
        </mxCell>
        <mxCell id="P2ACuwvenuWP9-W9ECjz-97" value="&lt;font style=&quot;font-size: 45px;&quot;&gt;ACL&lt;br&gt;Restricts external&lt;br&gt;SSH traffic&lt;br&gt;&lt;br&gt;&lt;/font&gt;" style="sketch=0;outlineConnect=0;fontColor=#232F3E;gradientColor=none;strokeColor=#232F3E;fillColor=#ffffff;dashed=0;verticalLabelPosition=bottom;verticalAlign=top;align=center;html=1;fontSize=12;fontStyle=0;aspect=fixed;shape=mxgraph.aws4.resourceIcon;resIcon=mxgraph.aws4.network_access_control_list;" parent="1" vertex="1">
          <mxGeometry x="1380" y="1900" width="190" height="190" as="geometry" />
        </mxCell>
        <mxCell id="tiaOKeIbIhI_1nLlB4OD-1" value="" style="points=[[0.145,0.145,0],[0.5,0,0],[0.855,0.145,0],[1,0.5,0],[0.855,0.855,0],[0.5,1,0],[0.145,0.855,0],[0,0.5,0]];shape=mxgraph.bpmn.event;html=1;verticalLabelPosition=bottom;labelBackgroundColor=#ffffff;verticalAlign=top;align=center;perimeter=ellipsePerimeter;outlineConnect=0;aspect=fixed;outline=boundInt;symbol=cancel;" vertex="1" parent="1">
          <mxGeometry x="-290" y="2140" width="220" height="220" as="geometry" />
        </mxCell>
        <mxCell id="tiaOKeIbIhI_1nLlB4OD-2" value="" style="points=[[0.145,0.145,0],[0.5,0,0],[0.855,0.145,0],[1,0.5,0],[0.855,0.855,0],[0.5,1,0],[0.145,0.855,0],[0,0.5,0]];shape=mxgraph.bpmn.event;html=1;verticalLabelPosition=bottom;labelBackgroundColor=#ffffff;verticalAlign=top;align=center;perimeter=ellipsePerimeter;outlineConnect=0;aspect=fixed;outline=boundInt;symbol=cancel;" vertex="1" parent="1">
          <mxGeometry x="-830" y="2140" width="220" height="220" as="geometry" />
        </mxCell>
      </root>
    </mxGraphModel>
  </diagram>
</mxfile>
